<svg id="Layer_1" data-name="Layer 1" xmlns="http://www.w3.org/2000/svg" viewBox="0 0 4224 5064"><defs><style>.cls-1{font-size:181.58px;}.cls-1,.cls-14{fill:#e22246;}.cls-1,.cls-19,.cls-20{font-family:Futura-Medium, Futura;}.cls-2{letter-spacing:-0.03em;}.cls-3{letter-spacing:-0.02em;}.cls-4{letter-spacing:0em;}.cls-5{letter-spacing:0.01em;}.cls-6{letter-spacing:0em;}.cls-7{letter-spacing:0.01em;}.cls-8{letter-spacing:0.01em;}.cls-9{letter-spacing:0.01em;}.cls-10{letter-spacing:0em;}.cls-11{fill:none;}.cls-11,.cls-12,.cls-13{stroke:#666;}.cls-11,.cls-12,.cls-13,.cls-14,.cls-16,.cls-18{stroke-miterlimit:10;}.cls-11,.cls-12,.cls-13,.cls-14{stroke-width:13px;}.cls-12{fill:gray;}.cls-13,.cls-16,.cls-19,.cls-20{fill:#fff;}.cls-14{font-size:83.19px;stroke:#e3000c;font-family:MyriadPro-Regular, Myriad Pro;opacity:0.59;}.cls-15{letter-spacing:-0.01em;}.cls-16,.cls-18{stroke:#000;stroke-width:70px;}.cls-16,.cls-17{opacity:0.5;}.cls-19{font-size:160.64px;}.cls-20{font-size:138.33px;}</style></defs><title>imageArtboard 1</title><text class="cls-1" transform="translate(737.02 4829.6) scale(1.06 1)"><tspan class="cls-2">K</tspan><tspan class="cls-3" x="114.73" y="0">e</tspan><tspan class="cls-4" x="212.08" y="0">y</tspan><tspan x="311.64" y="0">: SI / B - Si</tspan><tspan class="cls-5" x="1199.32" y="0">m</tspan><tspan class="cls-6" x="1345.17" y="0">ple Scale </tspan><tspan class="cls-7" x="2158.72" y="0">N</tspan><tspan class="cls-8" x="2313.26" y="0">o</tspan><tspan class="cls-9" x="2423.46" y="0">t</tspan><tspan class="cls-10" x="2474.71" y="0">es</tspan></text><ellipse class="cls-11" cx="401.54" cy="4668.27" rx="229.18" ry="207.65"/><ellipse class="cls-12" cx="361.14" cy="4627.11" rx="30.74" ry="33.16" transform="translate(-4267.15 4972.74) rotate(-89.81)"/><path class="cls-13" d="M247,4628.27c.21,17,15.22,30.58,33.54,30.4s33-14.1,32.78-31.08-15.23-30.58-33.54-30.4-33,14.1-32.78,31.08"/><ellipse class="cls-13" cx="523.19" cy="4625.46" rx="30.74" ry="33.16" transform="translate(-4104 5133.15) rotate(-89.81)"/><ellipse class="cls-12" cx="442.17" cy="4626.29" rx="30.74" ry="33.16" transform="translate(-4185.57 5052.94) rotate(-89.81)"/><path class="cls-13" d="M407,4520.79c18.31-.18,33.33,13.43,33.54,30.4s-14.47,30.89-32.78,31.07-33.33-13.42-33.54-30.4S388.72,4521,407,4520.79"/><path class="cls-13" d="M326,4521.61c-18.31.19-33,14.1-32.78,31.08s15.23,30.58,33.54,30.4,33-14.1,32.78-31.08-15.22-30.58-33.54-30.4"/><path class="cls-12" d="M488.06,4520c18.32-.19,33.33,13.42,33.54,30.4s-14.46,30.89-32.78,31.07S455.49,4568,455.28,4551s14.47-30.89,32.78-31.07"/><ellipse class="cls-13" cx="409.27" cy="4701.73" rx="30.74" ry="33.16" transform="translate(-4293.8 5095.24) rotate(-89.81)"/><ellipse class="cls-13" cx="328.25" cy="4702.55" rx="30.74" ry="33.16" transform="translate(-4375.38 5015.04) rotate(-89.81)"/><ellipse class="cls-13" cx="490.3" cy="4700.91" rx="30.74" ry="33.16" transform="matrix(0, -1, 1, 0, -4212.23, 5175.45)"/><text class="cls-14" transform="matrix(1.21, -0.11, 0.11, 0.99, 289.93, 4813.49)">bo<tspan class="cls-15" x="93.01" y="0">t</tspan><tspan x="120.05" y="0">on</tspan></text><ellipse class="cls-16" cx="2018.52" cy="664.53" rx="164.65" ry="152.42"/><ellipse class="cls-16" cx="2018.52" cy="279.67" rx="164.65" ry="152.42"/><ellipse class="cls-16" cx="2018.52" cy="2512.45" rx="164.65" ry="152.42"/><ellipse class="cls-16" cx="2018.52" cy="3257.3" rx="164.65" ry="152.42"/><ellipse class="cls-16" cx="2018.52" cy="2884.88" rx="164.65" ry="152.42"/><ellipse class="cls-16" cx="2018.52" cy="3629.73" rx="164.65" ry="152.42"/><ellipse class="cls-16" cx="2018.52" cy="4002.15" rx="164.65" ry="152.42"/><ellipse class="cls-16" cx="2018.52" cy="4374.58" rx="164.65" ry="152.42"/><ellipse class="cls-16" cx="2420.83" cy="468.24" rx="164.65" ry="152.42"/><ellipse class="cls-16" cx="2420.83" cy="1597.94" rx="164.65" ry="152.42"/><ellipse class="cls-16" cx="2420.83" cy="1970.36" rx="164.65" ry="152.42"/><ellipse class="cls-16" cx="2420.83" cy="2722.31" rx="164.65" ry="152.42"/><ellipse class="cls-16" cx="2420.83" cy="2349.89" rx="164.65" ry="152.42"/><ellipse class="cls-16" cx="2420.83" cy="3467.16" rx="164.65" ry="152.42"/><ellipse class="cls-16" cx="2420.83" cy="3094.74" rx="164.65" ry="152.42"/><ellipse class="cls-16" cx="2420.83" cy="3839.59" rx="164.65" ry="152.42"/><ellipse class="cls-16" cx="2420.83" cy="4212.02" rx="164.65" ry="152.42"/><ellipse class="cls-16" cx="1616.21" cy="853.09" rx="164.65" ry="152.42"/><ellipse class="cls-16" cx="1616.21" cy="473.56" rx="164.65" ry="152.42"/><ellipse class="cls-16" cx="1616.21" cy="1597.94" rx="164.65" ry="152.42"/><ellipse class="cls-16" cx="1616.21" cy="1225.51" rx="164.65" ry="152.42"/><ellipse class="cls-16" cx="1616.21" cy="1970.36" rx="164.65" ry="152.42"/><ellipse class="cls-16" cx="1616.21" cy="2349.89" rx="164.65" ry="152.42"/><ellipse class="cls-16" cx="1616.21" cy="3467.16" rx="164.65" ry="152.42"/><ellipse class="cls-16" cx="1616.21" cy="3094.74" rx="164.65" ry="152.42"/><ellipse class="cls-16" cx="1616.21" cy="3839.59" rx="164.65" ry="152.42"/><ellipse class="cls-16" cx="1616.21" cy="4212.02" rx="164.65" ry="152.42"/><text class="cls-17"></text><ellipse class="cls-16" cx="2420.83" cy="849.82" rx="164.65" ry="152.42"/><ellipse class="cls-18" cx="2420.83" cy="1218.98" rx="164.65" ry="152.42"/><ellipse class="cls-16" cx="2018.52" cy="1034.4" rx="164.65" ry="152.42"/><ellipse class="cls-16" cx="2018.52" cy="1403.56" rx="164.65" ry="152.42"/><ellipse class="cls-16" cx="2018.52" cy="1772.72" rx="164.65" ry="152.42"/><ellipse class="cls-18" cx="2018.52" cy="2141.88" rx="164.65" ry="152.42"/><ellipse class="cls-16" cx="1616.21" cy="2725.43" rx="164.65" ry="152.42"/><text class="cls-19" transform="translate(2301.89 1284.77) scale(1.06 1)">MI</text><text class="cls-20" transform="translate(1835.36 2203.98) scale(1.06 1)">SOL#</text></svg>