<svg id="Layer_1" data-name="Layer 1" xmlns="http://www.w3.org/2000/svg" viewBox="0 0 40 40"><defs><style>.cls-1{fill:none;}.cls-1,.cls-2,.cls-3{stroke:#666;}.cls-1,.cls-2,.cls-3,.cls-4{stroke-miterlimit:10;stroke-width:0.75px;}.cls-2{fill:gray;}.cls-3{fill:#fff;}.cls-4{font-size:6.83px;fill:#666;stroke:#e3000c;font-family:MyriadPro-Regular, Myriad Pro;opacity:0.59;}.cls-5{letter-spacing:-0.01em;}</style></defs><title>logoArtboard 1</title><ellipse class="cls-1" cx="19.83" cy="19.94" rx="17.83" ry="17.06"/><ellipse class="cls-2" cx="16.69" cy="16.56" rx="2.53" ry="2.58" transform="translate(-0.07 33.05) rotate(-89.32)"/><path class="cls-3" d="M7.8,16.65a2.58,2.58,0,1,0,2.55-2.55A2.56,2.56,0,0,0,7.8,16.65"/><ellipse class="cls-3" cx="29.3" cy="16.42" rx="2.53" ry="2.58" transform="translate(12.53 45.52) rotate(-89.32)"/><ellipse class="cls-2" cx="22.99" cy="16.49" rx="2.53" ry="2.58" transform="translate(6.23 39.28) rotate(-89.32)"/><path class="cls-3" d="M20.26,7.82a2.53,2.53,0,1,1-2.55,2.55,2.56,2.56,0,0,1,2.55-2.55"/><path class="cls-3" d="M14,7.89a2.53,2.53,0,1,0,2.6,2.5A2.56,2.56,0,0,0,14,7.89"/><path class="cls-2" d="M26.56,7.75A2.53,2.53,0,1,1,24,10.31a2.56,2.56,0,0,1,2.55-2.56"/><ellipse class="cls-3" cx="20.43" cy="22.69" rx="2.53" ry="2.58" transform="translate(-2.5 42.85) rotate(-89.32)"/><ellipse class="cls-3" cx="14.13" cy="22.76" rx="2.53" ry="2.58" transform="translate(-8.79 36.61) rotate(-89.32)"/><ellipse class="cls-3" cx="26.74" cy="22.62" rx="2.53" ry="2.58" transform="translate(3.8 49.09) rotate(-89.32)"/><text class="cls-4" transform="matrix(1.14, -0.11, 0.11, 0.99, 11.15, 31.87)">bo<tspan class="cls-5" x="7.64" y="0">t</tspan><tspan x="9.86" y="0">on</tspan></text></svg>