<svg id="Layer_1" data-name="Layer 1" xmlns="http://www.w3.org/2000/svg" viewBox="0 0 60 60"><defs><style>.cls-1,.cls-2{fill:#fff;}.cls-2{font-size:8.1px;font-family:MyriadPro-Regular, Myriad Pro;}.cls-3{letter-spacing:0em;}.cls-4{stroke:#000;stroke-miterlimit:10;stroke-width:0.5px;}</style></defs><title>switchArtboard 1</title><path class="cls-1" d="M0,59.06V12H58.85v47ZM27,16.73l-.36,0c-.55.14-1.1.26-1.63.42L21,18.5c-1.45.48-2.89,1-4.33,1.47-.9.31-1.79.64-2.68,1a3.18,3.18,0,0,0-2,1.6l-.64,1.32L9.56,27.47c-.47.94-.92,1.88-1.41,2.8a.6.6,0,0,0,.09.8,10,10,0,0,0,.81.79c1.1.92,2.21,1.82,3.3,2.74l3.06,2.58,3.76,3.17,1.8,1.5c.51.44,1,.9,1.53,1.34l2.78,2.37,3.85,3.27c.38.32.79.61,1.17.94.67.57,1.32,1.15,2,1.73s1.22,1,1.79,1.59a5.31,5.31,0,0,0,1.27,1A1.93,1.93,0,0,0,37,54.3a2.77,2.77,0,0,0,.55-.26c.64-.37,1.28-.76,1.92-1.14S40.55,52.36,41,52A7.62,7.62,0,0,1,43,51.13a1.33,1.33,0,0,0,.39-.21,2.5,2.5,0,0,1,.81-.42,2.21,2.21,0,0,0,.92-.59,3.72,3.72,0,0,1,.64-.55c.56-.37,1.14-.72,1.72-1.07.82-.5,1.67-1,2.48-1.48a2.85,2.85,0,0,0,.63-.62.35.35,0,0,0,0-.42.51.51,0,0,1,0-.45c.19-.8.39-1.61.56-2.41a5.23,5.23,0,0,0,.09-1,1.52,1.52,0,0,0-.43-1.1c-.78-.77-1.54-1.56-2.34-2.31-1.17-1.11-2.37-2.19-3.55-3.3l-3-2.81-3.19-3.06c-.56-.53-1.12-1.06-1.67-1.61L34.84,25.6a.44.44,0,0,1-.13-.43c0-.12,0-.25,0-.36a2,2,0,0,0-.63-1.94c-.94-.92-1.89-1.83-2.85-2.74s-2-1.81-2.94-2.71A2.11,2.11,0,0,0,27,16.73Z"/><path d="M26.56,5a2.76,2.76,0,0,1,1.8.93c1.28,1.22,2.55,2.44,3.82,3.68s2.47,2.46,3.7,3.7a2.76,2.76,0,0,1,.81,2.62c0,.16,0,.33-.06.49a.56.56,0,0,0,.17.58l2.81,2.92c.71.73,1.44,1.46,2.16,2.18q2.07,2.07,4.15,4.13T49.8,30c1.53,1.5,3.08,3,4.61,4.46,1,1,2,2.09,3,3.13a2.16,2.16,0,0,1,.55,1.5,6.29,6.29,0,0,1-.12,1.3c-.22,1.09-.47,2.18-.72,3.26a.69.69,0,0,0,.06.61.48.48,0,0,1,0,.57,4.05,4.05,0,0,1-.81.84c-1.06.7-2.16,1.33-3.23,2-.76.47-1.5.94-2.24,1.45a4.39,4.39,0,0,0-.82.74,2.9,2.9,0,0,1-1.2.79,3.25,3.25,0,0,0-1,.57,1.5,1.5,0,0,1-.51.28,10.24,10.24,0,0,0-2.49,1.21c-.64.46-1.35.79-2,1.2-.84.51-1.66,1-2.5,1.54a4.68,4.68,0,0,1-.71.35,2.39,2.39,0,0,1-2.17-.22,7.18,7.18,0,0,1-1.66-1.41c-.73-.76-1.54-1.44-2.32-2.16s-1.7-1.57-2.57-2.35c-.49-.43-1-.83-1.52-1.26l-5-4.44-3.62-3.2-2-1.81-2.33-2-4.88-4.29-4-3.49C6.18,28,4.74,26.73,3.32,25.48a13.25,13.25,0,0,1-1.06-1.06.88.88,0,0,1-.12-1.1c.64-1.24,1.23-2.51,1.83-3.78l2.3-4.89c.28-.6.56-1.19.83-1.79a4.26,4.26,0,0,1,2.56-2.17c1.16-.44,2.31-.88,3.47-1.3q2.82-1,5.64-2,2.6-.92,5.2-1.77c.69-.23,1.41-.39,2.11-.57A3.93,3.93,0,0,1,26.56,5Z"/><text class="cls-2" transform="matrix(0.84, 0.9, -0.26, 0.97, 32.46, 21.95)">FBb<tspan class="cls-3" x="12.94" y="0">E</tspan><tspan x="16.89" y="0">b</tspan></text><ellipse class="cls-1" cx="34.47" cy="34.99" rx="3.87" ry="7.46" transform="translate(-14.48 39.03) rotate(-50.15)"/><line class="cls-4" x1="29" y1="35" x2="35" y2="30"/><line class="cls-4" x1="33" y1="39" x2="39" y2="34"/><circle cx="30.5" cy="31.5" r="0.5"/></svg>